<?xml version="1.0" encoding="UTF-8"?>
<svg version="1.1" xmlns="http://www.w3.org/2000/svg" width="536" height="452">
<path d="M0 0 C0 2.97 0 5.94 0 9 C1.40056641 8.98428955 2.80113281 8.9685791 4.24414062 8.95239258 C9.51475108 8.89747849 14.78533707 8.86342949 20.05615234 8.83520508 C22.32344842 8.82025693 24.59071629 8.79989102 26.85791016 8.77368164 C61.97240584 8.37835288 92.68093354 18.4435617 118.47070312 42.95068359 C140.59904536 64.65498051 154.90855931 92.77566895 155.24194336 124.11376953 C155.29633485 149.92830103 150.29631857 171.35732918 136 193 C135.65243652 193.57669434 135.30487305 194.15338867 134.94677734 194.74755859 C133.91796875 196.41796875 133.91796875 196.41796875 132 199 C131.01 199 130.02 199 129 199 C128.731875 199.5775 128.46375 200.155 128.1875 200.75 C126.31036714 204.30667279 123.80305926 207.2855267 121.25 210.375 C120.80140625 210.91898438 120.3528125 211.46296875 119.890625 212.0234375 C117.13854439 214.90061268 114.0229556 217.4088952 111 220 C125.52 220 140.04 220 155 220 C155.66 216.04 156.32 212.08 157 208 C157.87820149 204.65202571 158.79872986 201.36712734 159.8125 198.0625 C160.433745 195.99001843 161.05338539 193.91705553 161.671875 191.84375 C162.20844727 190.049375 162.20844727 190.049375 162.75585938 188.21875 C164.25425407 183.16680885 165.69526362 178.09856404 167.140625 173.03125 C167.70848737 171.04546577 168.27644086 169.05970759 168.84448242 167.07397461 C169.69549371 164.09885119 170.54521673 161.12340032 171.39004517 158.14651489 C174.85830161 145.93554344 178.60427266 133.91065253 183 122 C182.2066626 122.0513208 181.4133252 122.1026416 180.59594727 122.15551758 C172.78431868 122.59608219 172.78431868 122.59608219 168.875 119.625 C166.13900715 115.79461001 165.45265687 113.74364047 166 109 C168.74003521 104.76875332 169.77104533 103.29890025 174.7421875 102.08984375 C176.11838911 102.00958725 177.49663416 101.95939927 178.875 101.9375 C179.55691406 101.89173828 180.23882812 101.84597656 180.94140625 101.79882812 C186.85725277 101.55656012 191.65295523 102.91373798 196.1796875 106.9375 C196.73914063 107.618125 197.29859375 108.29875 197.875 109 C198.44992187 109.680625 199.02484375 110.36125 199.6171875 111.0625 C202.87938214 115.63325859 202.44884758 120.63841771 202 126 C201.51342808 128.19717095 200.96254826 130.38056053 200.3671875 132.55078125 C200.19172897 133.19213516 200.01627045 133.83348907 199.835495 134.49427795 C197.55810495 142.73292294 195.10000703 150.9205312 192.6557312 159.11080933 C187.93330291 174.94139528 183.30160128 190.7920183 178.8918457 206.71264648 C177.93907261 210.14502744 176.97179777 213.57296315 176 217 C175.67128906 218.19165771 175.34257812 219.38331543 175.00390625 220.61108398 C174.67132813 221.76809814 174.33875 222.9251123 173.99609375 224.1171875 C173.55994751 225.6638208 173.55994751 225.6638208 173.11499023 227.24169922 C170.82814466 232.89897562 166.38962568 235.9047549 161 238.375 C154.07603069 239.81749361 147.12819957 240.2240499 140.08105469 240.54077148 C139.1202449 240.58647278 138.15943512 240.63217407 137.16950989 240.67926025 C135.09133953 240.77772656 133.01310208 240.87478524 130.93480682 240.97057915 C127.6162423 241.12366001 124.29788537 241.28070238 120.97955322 241.43873596 C112.72096937 241.83126704 104.46209033 242.21742784 96.20318604 242.60314941 C63.21372255 244.07702328 63.21372255 244.07702328 30.25390625 246.08203125 C29.19447815 246.15707382 28.13505005 246.23211639 27.04351807 246.30943298 C11.37005954 247.49922247 -3.47238316 251.24379865 -18.59082031 255.38330078 C-21.0475785 256.01217909 -23.50939868 256.52462242 -26 257 C-25.71125 257.61488281 -25.4225 258.22976563 -25.125 258.86328125 C-24.568125 260.07564453 -24.568125 260.07564453 -24 261.3125 C-23.62875 262.11300781 -23.2575 262.91351563 -22.875 263.73828125 C-22 266 -22 266 -22 269 C-21.3153492 268.99484627 -20.63069839 268.98969254 -19.9253006 268.98438263 C-3.05397515 268.85748756 13.81736202 268.73228971 30.68871307 268.60884857 C38.84847109 268.54910828 47.00822446 268.48883505 55.16796875 268.42724609 C72.08650392 268.29978854 89.00504533 268.17789128 105.92375183 268.07527161 C107.32009892 268.06678964 108.71644597 268.05830078 110.11279297 268.04980469 C110.78680177 268.04570682 111.46081057 268.04160894 112.15524387 268.03738689 C116.41489307 268.01105014 120.67448638 267.9801377 124.93408203 267.94628906 C129.79201909 267.90771534 134.64990478 267.87779089 139.50794983 267.85694885 C141.15733541 267.84832126 142.80670763 267.83628875 144.45603943 267.82041931 C163.38063124 267.64256812 163.38063124 267.64256812 168.5 272.25 C170.3224714 275.59119756 170.61313193 277.24456694 170 281 C166.87692308 286.70769231 166.87692308 286.70769231 163 288 C160.50762491 288.10942401 158.04211745 288.16354355 155.5491333 288.17167664 C154.40113506 288.1812003 154.40113506 288.1812003 153.22994494 288.19091636 C150.657539 288.21100602 148.085146 288.22402865 145.51269531 288.23706055 C143.67141444 288.24991123 141.83013636 288.26316557 139.98886108 288.27679443 C134.98048678 288.31243907 129.97209457 288.34165556 124.96366978 288.36918616 C121.83501251 288.38668024 118.70636677 288.40555783 115.57772064 288.42493629 C104.66381714 288.49251318 93.74989793 288.55491579 82.8359375 288.61254883 C72.66182732 288.66640988 62.48783114 288.73151195 52.31382298 288.80188721 C43.58085285 288.86179878 34.84785868 288.91385428 26.11480403 288.95981437 C20.89824023 288.98740126 15.68174258 289.0181652 10.46524811 289.05682945 C5.55696458 289.0929374 0.64872421 289.11926078 -4.259655 289.1381073 C-6.05957682 289.1466716 -7.85948603 289.15870529 -9.65935898 289.17449379 C-12.12003378 289.19553301 -14.58044682 289.20395096 -17.04119873 289.20927429 C-18.10479178 289.22282606 -18.10479178 289.22282606 -19.18987155 289.2366516 C-24.4916331 289.2277852 -29.99802697 288.95748474 -33.93359375 285.109375 C-34.42988281 284.33078125 -34.92617188 283.5521875 -35.4375 282.75 C-36.00726563 281.86441406 -36.57703125 280.97882813 -37.1640625 280.06640625 C-37.76992188 279.05449219 -38.37578125 278.04257812 -39 277 C-39.34772461 276.41976074 -39.69544922 275.83952148 -40.05371094 275.24169922 C-50.51309508 257.66788118 -50.51309508 257.66788118 -49 248 C-43.4358086 239.82759388 -30.55436401 238.3678193 -21.5625 235.875 C-20.16661223 235.48530234 -18.77077989 235.09540614 -17.375 234.70532227 C-1.93639579 230.39872969 13.53009339 226.19251245 29 222 C29.020625 220.700625 29.04125 219.40125 29.0625 218.0625 C29.07990234 216.96615234 29.07990234 216.96615234 29.09765625 215.84765625 C29.20561184 213.98267859 29.20561184 213.98267859 28 213 C22.49762552 212.60986683 18.36428387 213.32598343 13.17015266 215.08981323 C-0.30128134 219.65208618 -13.20285075 219.89762874 -27.3046875 219.875 C-29.7689878 219.89137851 -32.23327375 219.91005922 -34.69754028 219.9309082 C-39.8155506 219.96832627 -44.9331251 219.98686796 -50.05126953 219.98974609 C-56.60257802 219.99374304 -63.15308382 220.03270956 -69.70417595 220.08398438 C-74.7724801 220.12212133 -79.84078753 220.14875403 -84.9091835 220.17120361 C-87.32607109 220.18200775 -89.74295065 220.19480262 -92.15981674 220.20965576 C-95.52573183 220.22727527 -98.89136909 220.23102855 -102.25732422 220.23046875 C-103.24644806 220.23758377 -104.2355719 220.24469879 -105.25466919 220.25202942 C-110.55590661 220.23473862 -115.01272466 219.85783581 -120 218 C-122.50334311 215.17013388 -122.41831947 211.55083718 -122.31640625 207.90234375 C-122 206 -122 206 -120.3125 203.5625 C-115.64387401 200.40802298 -110.31654529 200.8532146 -104.859375 200.8671875 C-103.60136078 200.86493668 -103.60136078 200.86493668 -102.31793213 200.86264038 C-99.4619104 200.86023389 -96.60600995 200.86669765 -93.75 200.875 C-92.75387695 200.87721558 -91.75775391 200.87943115 -90.73144531 200.88171387 C-84.30137914 200.89801474 -77.87145343 200.92857121 -71.44147491 200.96554565 C-66.81145849 200.99167401 -62.18144617 201.0113212 -57.55138779 201.02834892 C-48.46357021 201.06207602 -39.37606175 201.1130092 -30.28847885 201.18711662 C-25.68868472 201.22438394 -21.08906041 201.2552653 -16.48913574 201.27044678 C-12.09160204 201.28548144 -7.69461467 201.31984118 -3.29732513 201.36818314 C-1.65988603 201.38297178 -0.02237046 201.3910459 1.61513519 201.39191818 C9.97977729 201.4006565 16.69553033 201.43069162 24 206 C27.41289492 206.36929717 27.41289492 206.36929717 30.6875 206.0625 C35.51859727 205.74428401 38.09031757 206.03521455 42 209 C44.18719033 212.28078549 44.21791927 212.80590051 43.75 216.5 C43.66234375 217.2734375 43.5746875 218.046875 43.484375 218.84375 C43 221 43 221 41 224 C67.3138815 223.52780963 90.75046131 212.77279324 109.75 194.8125 C125.49092397 178.30767825 134.79935427 156.81226896 136 134 C136.04125 133.236875 136.0825 132.47375 136.125 131.6875 C136.81462308 105.48182295 126.79061632 81.70018161 110 62 C109.40960938 61.43023437 108.81921875 60.86046875 108.2109375 60.2734375 C107 59 107 59 107 57 C106.40703125 56.73316406 105.8140625 56.46632812 105.203125 56.19140625 C102.96181375 54.97934963 101.55421814 53.72064083 99.75 51.9375 C76.98362014 31.69604212 46.96199092 28.1164551 17.875 27.4375 C16.1380123 27.39422119 14.401033 27.35060422 12.6640625 27.30664062 C8.44279501 27.20052656 4.2214402 27.09899471 0 27 C0 29.97 0 32.94 0 36 C-8.55838043 34.62773597 -16.11394578 31.82044198 -24.125 28.5625 C-26.56493453 27.58421223 -29.00503435 26.60633658 -31.4453125 25.62890625 C-32.57743164 25.17273926 -33.70955078 24.71657227 -34.87597656 24.24658203 C-38.56475768 22.77464421 -42.27269864 21.37101484 -46 20 C-46 19.34 -46 18.68 -46 18 C-21.9881726 7.34448021 -21.9881726 7.34448021 -11.1875 2.8125 C-10.50824463 2.52173584 -9.82898926 2.23097168 -9.12915039 1.93139648 C-5.78905038 0.54716833 -3.69048415 0 0 0 Z " fill="#D97844" transform="translate(300,65)"/>
<path d="M0 0 C1.23508301 0.00966797 2.47016602 0.01933594 3.74267578 0.02929688 C5.02255371 0.04541016 6.30243164 0.06152344 7.62109375 0.078125 C8.85585449 0.08908203 10.09061523 0.10003906 11.36279297 0.11132812 C15.09576992 0.15636863 18.8264438 0.23847545 22.55859375 0.328125 C23.81994141 0.34230469 25.08128906 0.35648437 26.38085938 0.37109375 C34.85055531 0.59433297 39.83973359 1.20642517 45.91015625 7.421875 C47.84271658 10.42219697 48.91559608 13.17570682 49.99609375 16.578125 C50.1981543 17.21105469 50.40021484 17.84398437 50.60839844 18.49609375 C51.29737453 20.68497393 51.96220362 22.8800019 52.62109375 25.078125 C52.88245117 25.94824219 53.14380859 26.81835938 53.41308594 27.71484375 C54.24283795 30.49966826 55.06009588 33.28778393 55.87109375 36.078125 C56.2585376 37.40360352 56.2585376 37.40360352 56.65380859 38.75585938 C58.01407075 43.52991735 59.05802645 48.14458294 59.62109375 53.078125 C60.41169189 53.07288818 61.20229004 53.06765137 62.0168457 53.06225586 C65.65575339 53.04125858 69.29464825 53.02839323 72.93359375 53.015625 C74.79854492 53.00305664 74.79854492 53.00305664 76.70117188 52.99023438 C98.86081136 52.93207259 98.86081136 52.93207259 103.62109375 57.078125 C105.70716301 59.73312224 105.6198883 61.14563004 105.55859375 64.578125 C104.40609356 68.88079237 103.3762385 69.76928382 99.62109375 72.078125 C96.83580726 72.4210089 94.46579197 72.54842234 91.6953125 72.46875 C90.94772171 72.46309021 90.20013092 72.45743042 89.42988586 72.45159912 C87.05545464 72.42930968 84.68256437 72.37913156 82.30859375 72.328125 C80.69338126 72.30805019 79.07814498 72.28980113 77.46289062 72.2734375 C73.51503642 72.22946986 69.56832583 72.16049761 65.62109375 72.078125 C65.90984375 72.89796875 66.19859375 73.7178125 66.49609375 74.5625 C67.05296875 76.17898437 67.05296875 76.17898437 67.62109375 77.828125 C68.17796875 79.42914063 68.17796875 79.42914063 68.74609375 81.0625 C69.62109375 84.078125 69.62109375 84.078125 69.62109375 88.078125 C70.59384247 88.07590439 71.56659119 88.07368378 72.56881714 88.07139587 C81.72163411 88.05115252 90.87444656 88.03614708 100.02728081 88.02631283 C104.73320318 88.02108705 109.43910753 88.0139949 114.14501953 88.00268555 C118.68372907 87.99184588 123.22242125 87.98584586 127.76114273 87.98324776 C129.49554849 87.98139546 131.22995326 87.97777857 132.96435165 87.97239494 C135.38755116 87.96517022 137.81067823 87.96413467 140.23388672 87.96459961 C140.95605377 87.96100433 141.67822083 87.95740906 142.42227173 87.95370483 C147.39298943 87.96407284 147.39298943 87.96407284 149.62109375 89.078125 C152.50019963 89.31086709 155.3625587 89.49785257 158.24609375 89.640625 C159.04789062 89.68380859 159.8496875 89.72699219 160.67578125 89.77148438 C162.65734485 89.87763957 164.63919646 89.97839355 166.62109375 90.078125 C166.62109375 89.418125 166.62109375 88.758125 166.62109375 88.078125 C178.50109375 88.573125 178.50109375 88.573125 190.62109375 89.078125 C189.60678911 77.92077392 188.35709166 69.81412291 180.12109375 61.578125 C172.84144777 57.21033741 164.87524267 57.09424438 156.62109375 58.078125 C149.15489957 61.04140263 144.50371998 67.3307109 139.74609375 73.515625 C137.08618666 75.47143904 134.86565595 75.70690886 131.59375 75.5234375 C128.0494586 74.72334003 126.61634298 73.00864731 124.62109375 70.078125 C123.56198873 64.5707789 125.27880972 60.88682298 128.0859375 56.2734375 C134.64326497 46.89629237 145.0059596 39.61300522 156.33984375 37.59375 C168.48383632 36.43393048 180.40142971 37.23902368 190.11328125 45.09375 C199.09007323 52.92513529 205.79924669 60.61258383 209.62109375 72.078125 C209.77070839 74.98697882 209.85227686 77.85606358 209.87109375 80.765625 C209.90203125 81.93254883 209.90203125 81.93254883 209.93359375 83.12304688 C209.97450878 89.25518637 209.11480199 94.72666875 205.34277344 99.79614258 C202.93869593 101.58624623 201.36896143 101.34714321 198.40234375 101.1953125 C197.38785156 101.16308594 196.37335938 101.13085938 195.328125 101.09765625 C193.18973858 101.00128561 191.05168947 100.89711479 188.9140625 100.78515625 C186.07656788 100.70223074 183.42842699 100.6511764 180.62109375 101.078125 C178.46925464 103.32550245 178.46925464 103.32550245 177.62109375 106.078125 C174.45166491 108.19107756 173.62479422 108.33063429 169.99609375 108.265625 C168.80113281 108.25595703 168.80113281 108.25595703 167.58203125 108.24609375 C165.62109375 108.078125 165.62109375 108.078125 164.62109375 107.078125 C163.07224234 106.98387813 161.51906981 106.95992363 159.96735764 106.96345711 C158.95478197 106.96331616 157.9422063 106.9631752 156.89894652 106.96302998 C155.77300401 106.96798918 154.6470615 106.97294838 153.48699951 106.97805786 C152.30135918 106.97932013 151.11571885 106.98058241 149.89415002 106.98188293 C146.58817686 106.98635009 143.28226863 106.99530296 139.97631335 107.00603652 C136.41656267 107.01648488 132.85680436 107.02114381 129.29704285 107.02636719 C123.12341245 107.03609593 116.94979628 107.04914356 110.77617645 107.06409073 C101.02089636 107.08741809 91.26561529 107.10045196 81.51031494 107.11178589 C78.17524331 107.11578774 74.84017177 107.11985639 71.50510025 107.12394524 C70.25476413 107.12547408 70.25476413 107.12547408 68.9791687 107.12703381 C59.48334292 107.13878499 49.98752067 107.1526612 40.49169922 107.16748047 C39.18911145 107.16950912 39.18911145 107.16950912 37.86020878 107.17157875 C23.78924104 107.19375677 9.71829723 107.22362336 -4.35265151 107.25544788 C-18.7886092 107.28781932 -33.22455439 107.30870034 -47.66054416 107.31972015 C-56.57023341 107.32695177 -65.47980473 107.34367994 -74.3894507 107.37252091 C-80.49508036 107.3914968 -86.60066289 107.39960671 -92.70632181 107.39911593 C-96.23098788 107.39917906 -99.75546872 107.4041898 -103.28009224 107.42228317 C-107.09907864 107.44177292 -110.91784132 107.43811191 -114.73687744 107.43215942 C-116.41240688 107.44629039 -116.41240688 107.44629039 -118.1217854 107.46070683 C-127.49388015 107.41163469 -127.49388015 107.41163469 -131.37890625 104.078125 C-133.70739672 100.86259054 -133.92347632 97.96791123 -133.37890625 94.078125 C-131.3111804 90.65047176 -129.2576239 88.37103088 -125.37890625 87.078125 C-123.57583369 86.99205389 -121.76966561 86.96568191 -119.96455383 86.97277832 C-118.28671326 86.97588642 -118.28671326 86.97588642 -116.57497692 86.97905731 C-115.35052018 86.98661293 -114.12606344 86.99416855 -112.86450195 87.00195312 C-110.93250804 87.00818066 -110.93250804 87.00818066 -108.96148396 87.014534 C-105.47645446 87.02632757 -101.99149498 87.04488727 -98.50650835 87.06563187 C-96.4214558 87.07787515 -94.33640056 87.08887621 -92.25133896 87.09945679 C-82.81975016 87.14791446 -73.38829938 87.21194957 -63.95683455 87.28005409 C-59.942445 87.30881952 -55.92804733 87.3364063 -51.91365051 87.36413574 C-44.36392628 87.41645555 -36.81420956 87.46978475 -29.26449519 87.5235076 C-20.64730539 87.58477498 -12.03010753 87.64486992 -3.41290891 87.70488262 C14.26510105 87.8280229 31.94310039 87.95262431 49.62109375 88.078125 C47.64109375 80.653125 47.64109375 80.653125 45.62109375 73.078125 C44.41697342 73.07669998 43.21285309 73.07527496 41.97224426 73.07380676 C30.62746851 73.05714113 19.28305166 73.01438058 7.93846607 72.94603443 C2.10597905 72.91173593 -3.72624524 72.88664995 -9.55883789 72.88256836 C-15.18710636 72.87829163 -20.81478185 72.84988021 -26.44286537 72.80469322 C-28.59062561 72.7916983 -30.73845673 72.78741756 -32.88625145 72.79197121 C-35.89381404 72.79686286 -38.89963396 72.77084759 -41.90698242 72.73754883 C-42.79602768 72.74617447 -43.68507294 72.75480011 -44.60105896 72.76368713 C-49.04914805 72.68106717 -50.81867417 72.5249455 -54.40840149 69.66191101 C-57.27498316 65.90316159 -57.93826571 63.83268039 -57.37890625 59.078125 C-55.39721861 56.37717957 -53.80462821 54.40698573 -50.43340111 53.62936974 C-48.03286408 53.46191534 -45.6801049 53.45971382 -43.27416992 53.51049805 C-42.36635773 53.50976791 -41.45854553 53.50903778 -40.52322388 53.50828552 C-37.53049419 53.51176164 -34.53933189 53.55062417 -31.546875 53.58984375 C-29.46894684 53.59917178 -27.39100767 53.60628794 -25.31306458 53.61128235 C-19.84983848 53.63035278 -14.38727937 53.67945459 -8.92431641 53.73480225 C-3.34742251 53.78599338 2.22957939 53.80879614 7.80664062 53.83398438 C18.74508436 53.88757278 29.68303354 53.97288664 40.62109375 54.078125 C40.31823708 53.18526543 40.31823708 53.18526543 40.00926208 52.27436829 C39.08364898 49.53947031 38.16289007 46.80296107 37.2421875 44.06640625 C36.92455444 43.13026489 36.60692139 42.19412354 36.27966309 41.22961426 C33.93634265 34.24844038 32.03038615 27.31249264 30.62109375 20.078125 C29.04026001 20.09383545 29.04026001 20.09383545 27.42749023 20.10986328 C23.4932804 20.14624044 19.55908526 20.16908959 15.62475586 20.18798828 C13.92648818 20.19800565 12.22823758 20.21162338 10.5300293 20.22900391 C8.07987233 20.25344079 5.6299447 20.2646509 3.1796875 20.2734375 C2.05269691 20.28892136 2.05269691 20.28892136 0.90293884 20.30471802 C-4.43838357 20.30583833 -9.86234722 20.00748692 -14.25390625 16.640625 C-16.84906507 13.03623775 -16.82870407 9.35120429 -16.37890625 5.078125 C-11.6829814 -0.0203077 -6.59563369 -0.05570393 0 0 Z " fill="#DA7944" transform="translate(170.37890625,112.921875)"/>
<path d="M0 0 C3.66310092 -0.02643262 7.32621454 -0.04436049 10.98937333 -0.06061226 C12.72552123 -0.07013476 14.46165408 -0.08317817 16.19774592 -0.10007077 C38.10927315 -0.30886844 38.10927315 -0.30886844 44.98433816 4.18636638 C49.42200034 7.08095658 54.4340008 6.26051645 59.52730691 6.00667888 C62.66933166 6.06025786 64.1635561 6.33535667 66.73433816 8.06136638 C69.03638893 11.05403237 69.2236474 14.36839927 69.10543191 18.08871013 C68.73433816 20.06136638 68.73433816 20.06136638 66.73433816 23.06136638 C62.88917457 25.62480878 60.22737247 25.90551222 55.73433816 25.06136638 C52.79683816 23.74886638 52.79683816 23.74886638 50.73433816 22.06136638 C50.40433816 21.07136638 50.07433816 20.08136638 49.73433816 19.06136638 C48.85053539 19.06652011 47.96673261 19.07167384 47.05614793 19.07698375 C25.33555447 19.20355866 3.61495344 19.32876002 -18.10565627 19.45251781 C-28.61049271 19.5124029 -39.11532633 19.57271695 -49.62015402 19.63412029 C-58.79911294 19.68777241 -67.97807649 19.74053891 -77.15704608 19.79233342 C-81.99634427 19.81966883 -86.83563946 19.84738511 -91.67492926 19.87617046 C-101.51971125 19.93448337 -111.36446711 19.98659139 -121.20934892 20.0249365 C-126.83364783 20.04774205 -132.45774794 20.08310994 -138.08193779 20.12470418 C-141.9657342 20.15137591 -145.84954074 20.16948752 -149.73339355 20.18568641 C-151.57775336 20.19514544 -153.42209903 20.20810637 -155.26640737 20.22481948 C-157.81610617 20.24741206 -160.36556792 20.25732965 -162.91535056 20.26436931 C-163.66044103 20.27399542 -164.40553151 20.28362153 -165.17320049 20.29353935 C-169.85853717 20.28990599 -173.85916626 19.66508732 -178.26566184 18.06136638 C-180.59354179 15.35802191 -181.19008963 13.57957582 -181.70316184 10.06136638 C-181.16005853 6.33722945 -179.86079367 4.73282562 -177.26566184 2.06136638 C-174.45145735 0.65426414 -172.10344243 0.9204014 -168.95435202 0.903148 C-168.29891256 0.89821002 -167.6434731 0.89327204 -166.96817183 0.88818443 C-164.75988337 0.87276401 -162.55162412 0.86443493 -160.34329855 0.85604411 C-158.76260238 0.84646547 -157.18190878 0.8364554 -155.60121787 0.82604533 C-151.28682122 0.79889792 -146.97241365 0.77791849 -142.65797818 0.75804335 C-138.10825137 0.73609966 -133.55855714 0.70871999 -129.00885642 0.68198711 C-121.32656964 0.63761706 -113.64427064 0.5968987 -105.9619509 0.55868083 C-95.27645014 0.50551217 -84.59099586 0.44554834 -73.90553892 0.38428515 C-66.38557702 0.34146353 -58.86560501 0.30045823 -51.34563172 0.25969368 C-49.55632571 0.24997568 -47.76702002 0.24020036 -45.97771466 0.23036391 C-35.92462802 0.17515868 -25.87157591 0.1265143 -15.81839204 0.09293997 C-10.54546762 0.07405957 -5.27279874 0.04075959 0 0 Z " fill="#DA7B45" transform="translate(281.26566183567047,233.93863362073898)"/>
<path d="M0 0 C0.83273437 0.66773438 1.66546875 1.33546875 2.5234375 2.0234375 C17.28930961 14.55346777 29.62662866 32.4323522 32 52 C32.32509812 56.52220731 32.45018302 61.02946825 32.5 65.5625 C32.52791626 67.25874512 32.52791626 67.25874512 32.55639648 68.98925781 C32.5080959 75.25989301 32.31897678 79.29763579 28 84 C25 86 25 86 21.625 86 C17.91058294 84.97533323 16.37817991 83.95010619 14.02148438 80.94433594 C11.99502562 77.08708988 12.39570769 72.88598225 12.4375 68.625 C12.09687322 51.31457628 8.30908743 34.85802679 -4.00390625 21.83203125 C-20.34276829 6.83608938 -36.6625757 2.99415054 -58.15869141 3.8046875 C-73.44826399 4.85569782 -85.23061914 12.87713993 -96.34765625 22.70703125 C-99.42855616 25.37048964 -100.27962112 25.91844767 -104.3125 26.375 C-108 26 -108 26 -110.875 23.9375 C-113.51868011 20.28300102 -114.30710824 18.52984659 -114 14 C-112.04544951 10.94149044 -109.5801556 8.5348013 -107 6 C-106.505 5.42378906 -106.01 4.84757812 -105.5 4.25390625 C-79.58636887 -24.96641218 -28.54973264 -23.15981261 0 0 Z " fill="#DB7844" transform="translate(385,130)"/>
<path d="M0 0 C7.35037812 5.40178795 13.7714545 12.34750961 15.640625 21.5234375 C16.74226446 31.99581262 15.18810788 41.38344126 8.640625 49.8359375 C3.38254111 55.39121744 -5.2432526 60.04842461 -12.92578125 60.76171875 C-22.74288133 61.00490637 -30.57556778 58.67807576 -38.359375 52.5234375 C-44.67534105 46.0534235 -48.96435775 38.16339139 -49.421875 29.02734375 C-49.15732044 18.42862649 -45.25342731 10.98361884 -37.609375 3.7109375 C-26.88641514 -5.17674654 -12.00105701 -7.51059528 0 0 Z M-27.671875 19.7109375 C-29.80073659 23.25904015 -30.55375824 26.43361412 -30.359375 30.5234375 C-28.81334988 35.67685457 -27.02648101 38.76560213 -22.359375 41.5234375 C-18.2074008 42.67676367 -15.88106422 42.67634641 -11.734375 41.4609375 C-8.00945892 39.32255975 -5.1619193 37.4620365 -3.359375 33.5234375 C-2.54288148 29.06259486 -2.35650766 24.75448599 -4.24609375 20.55078125 C-7.20561085 16.54904218 -10.61578195 15.38590896 -15.359375 14.5234375 C-20.7205737 14.5234375 -23.78670559 16.03577725 -27.671875 19.7109375 Z " fill="#DB7843" transform="translate(447.359375,364.4765625)"/>
<path d="M0 0 C6.34978489 4.40990753 11.43907407 10.23724159 13.80859375 17.6796875 C14.91897048 28.86092298 13.8445128 39.10151009 6.55859375 48.0546875 C-0.19723078 55.09922248 -7.70700894 58.6281372 -17.50390625 59.0546875 C-26.37860033 58.88402031 -34.63205834 55.08181652 -41.00390625 48.9296875 C-48.48755291 40.94713106 -49.80180046 34.27578198 -49.53125 23.3671875 C-48.66060307 13.92016794 -44.33371345 6.85912393 -37.19140625 0.6796875 C-24.90965774 -7.04711825 -12.53769909 -7.55390783 0 0 Z M-28.19140625 17.6796875 C-31.45775649 23.15872661 -31.47346486 26.66387401 -30.19140625 32.6796875 C-28.5479727 36.8075605 -26.49871153 38.21699491 -22.55078125 40.046875 C-18.20769232 41.21174322 -14.32577176 40.24840065 -10.19140625 38.6796875 C-7.1561543 36.40324854 -5.67867953 34.12489016 -4.19140625 30.6796875 C-3.60915445 26.45269068 -3.74571514 22.75872913 -5.37890625 18.8046875 C-8.12492398 15.58521844 -10.24448571 13.94665654 -14.52734375 13.359375 C-20.20488762 13.10362978 -23.91353254 13.61049056 -28.19140625 17.6796875 Z " fill="#DB7843" transform="translate(309.19140625,366.3203125)"/>
<path d="M0 0 C0.90017349 -0.00426498 1.80034698 -0.00852997 2.72779846 -0.01292419 C4.21309303 -0.01224442 4.21309303 -0.01224442 5.72839355 -0.0115509 C6.76910507 -0.01490952 7.80981659 -0.01826813 8.88206482 -0.02172852 C12.33541037 -0.03125757 15.78870754 -0.0331825 19.24206543 -0.03425598 C21.63338237 -0.03746681 24.02469911 -0.04083075 26.41601562 -0.04434204 C31.43306942 -0.05033794 36.45010596 -0.05218143 41.46716309 -0.05158997 C47.91047878 -0.05148823 54.35368457 -0.06515037 60.79697418 -0.08236217 C65.73647575 -0.09345418 70.6759505 -0.09551005 75.61546326 -0.09498024 C77.99182006 -0.09616421 80.36817748 -0.10060914 82.74452209 -0.10831261 C86.06083999 -0.11805764 89.37691591 -0.1152564 92.6932373 -0.10920715 C94.17853188 -0.11763641 94.17853188 -0.11763641 95.6938324 -0.12623596 C96.59400589 -0.12204147 97.49417938 -0.11784698 98.42163086 -0.11352539 C99.59855122 -0.11434254 99.59855122 -0.11434254 100.79924774 -0.1151762 C102.71081543 0.13371277 102.71081543 0.13371277 104.71081543 2.13371277 C104.96081543 5.13371277 104.96081543 5.13371277 104.71081543 8.13371277 C102.28621175 10.55831645 101.70754459 10.38579685 98.39039612 10.39440918 C97.02968239 10.40503639 97.02968239 10.40503639 95.64147949 10.4158783 C94.64350342 10.41340088 93.64552734 10.41092346 92.61730957 10.40837097 C91.56845078 10.4134819 90.51959198 10.41859283 89.43894958 10.42385864 C85.95789955 10.43780457 82.47704639 10.43679411 78.99597168 10.43449402 C76.58462957 10.4383782 74.17328815 10.44271229 71.76194763 10.44747925 C66.70199366 10.45495223 61.64210944 10.45464237 56.58215332 10.4493866 C50.08730465 10.44359062 43.59274101 10.4605211 37.09793949 10.48373127 C32.11635153 10.49843957 27.13483268 10.49934427 22.15322685 10.49622154 C19.75815707 10.49673622 17.36308357 10.5020012 14.96803474 10.51203346 C11.62307158 10.52432415 8.27866953 10.51765027 4.93371582 10.50602722 C3.43978806 10.51749283 3.43978806 10.51749283 1.91567993 10.52919006 C1.00571762 10.52217575 0.09575531 10.51516144 -0.84178162 10.50793457 C-2.0283808 10.50818618 -2.0283808 10.50818618 -3.23895168 10.50844288 C-5.77814057 10.04434412 -6.67011924 9.09006048 -8.28918457 7.13371277 C-7.68734708 5.11325834 -7.01612361 3.11260238 -6.28918457 1.13371277 C-3.95664384 -0.0325576 -2.59818596 0.00554943 0 0 Z " fill="#D97B45" transform="translate(85.2891845703125,297.8662872314453)"/>
<path d="M0 0 C7.65652311 2.7281864 14.82103391 5.77396911 22 9.5625 C22.71728271 9.93818115 23.43456543 10.3138623 24.17358398 10.70092773 C28.09411436 12.80708921 31.70839762 14.95912514 35 18 C35 18.66 35 19.32 35 20 C31.12824926 22.12911919 27.25042209 24.24659263 23.36669922 26.35375977 C22.04793591 27.07133642 20.73084753 27.79200056 19.41552734 28.51586914 C17.51838215 29.55922719 15.61537741 30.59112431 13.7109375 31.62109375 C12.56931152 32.2442749 11.42768555 32.86745605 10.25146484 33.50952148 C7 35 7 35 1 36 C1 31.71 1 27.42 1 23 C-0.17095215 23.01047363 -1.3419043 23.02094727 -2.54833984 23.03173828 C-6.88310705 23.06787497 -11.21786089 23.09087733 -15.55273438 23.10986328 C-17.43068682 23.11993534 -19.30862353 23.13359362 -21.18652344 23.15087891 C-23.8822009 23.17507453 -26.57767146 23.18647083 -29.2734375 23.1953125 C-30.11619232 23.20563507 -30.95894714 23.21595764 -31.82723999 23.22659302 C-33.88621247 23.22699144 -35.94467935 23.12257588 -38 23 C-40 21 -40 21 -40.25 18 C-40 15 -40 15 -38 13 C-35.13111419 12.82467711 -32.36007355 12.76862386 -29.4921875 12.8046875 C-28.23125778 12.80893234 -28.23125778 12.80893234 -26.94485474 12.81326294 C-24.25475954 12.8244757 -21.5649949 12.84958197 -18.875 12.875 C-17.05339022 12.8850284 -15.23177523 12.89415449 -13.41015625 12.90234375 C-8.93997642 12.92441858 -4.47004429 12.95895566 0 13 C0 8.71 0 4.42 0 0 Z " fill="#DA7843" transform="translate(198,29)"/>
<path d="M0 0 C0.79225983 0.00247742 1.58451965 0.00495483 2.40078735 0.00750732 C3.2350676 0.00239639 4.06934784 -0.00271454 4.9289093 -0.00798035 C7.69573068 -0.02191763 10.46230412 -0.02091647 13.22915649 -0.01861572 C15.14725335 -0.02250044 17.06534935 -0.02683464 18.98344421 -0.03160095 C23.00767808 -0.03907211 27.03182423 -0.03876546 31.05606079 -0.0335083 C36.21918655 -0.02771309 41.38195366 -0.04464158 46.5450201 -0.06785297 C50.50750334 -0.08256803 54.46989976 -0.08346505 58.43240547 -0.08034325 C60.33624545 -0.0808576 62.24009015 -0.08611666 64.14390373 -0.09615517 C66.80398899 -0.10845895 69.46337006 -0.10176455 72.1234436 -0.09014893 C73.308797 -0.10161453 73.308797 -0.10161453 74.51809692 -0.11331177 C79.8156032 -0.06204831 79.8156032 -0.06204831 82.35124207 1.64527893 C83.32681274 3.28216553 83.32681274 3.28216553 83.13931274 5.84466553 C82.32681274 8.28216553 82.32681274 8.28216553 80.32681274 10.28216553 C77.59676151 10.48072078 74.96814542 10.55488333 72.23696899 10.54095459 C70.98313919 10.54621155 70.98313919 10.54621155 69.70397949 10.55157471 C66.9323402 10.56039966 64.16095477 10.55454021 61.38931274 10.54779053 C59.46882071 10.54913696 57.548329 10.55107731 55.62783813 10.55358887 C51.59940349 10.55654117 47.57105742 10.55223909 43.54263306 10.54290771 C38.37050831 10.53151313 33.19859112 10.53807204 28.026474 10.55005264 C24.05974759 10.55726839 20.09307065 10.55498463 16.12634277 10.54979706 C14.21889217 10.54845977 12.31143712 10.55011103 10.4039917 10.55475616 C7.74142503 10.55981672 5.07919779 10.55211788 2.41665649 10.54095459 C1.62282562 10.54500305 0.82899475 10.54905151 0.0111084 10.55322266 C-5.44465897 10.51069381 -5.44465897 10.51069381 -7.67318726 8.28216553 C-7.92318726 5.28216553 -7.92318726 5.28216553 -7.67318726 2.28216553 C-5.12507172 -0.26595001 -3.4753966 0.03410174 0 0 Z " fill="#D77B47" transform="translate(39.673187255859375,115.71783447265625)"/>
<path d="M0 0 C1.18202499 -0.0038269 2.36404999 -0.00765381 3.58189392 -0.01159668 C6.07747246 -0.01431561 8.57307951 -0.00695588 11.06860352 0.00976562 C14.89208321 0.0311925 18.71368774 0.00995137 22.53710938 -0.015625 C24.96224374 -0.0129821 27.38737693 -0.0078579 29.8125 0 C30.95735367 -0.00809692 32.10220734 -0.01619385 33.28175354 -0.02453613 C34.34643356 -0.01192749 35.41111359 0.00068115 36.50805664 0.01367188 C37.44339737 0.01685425 38.3787381 0.02003662 39.34242249 0.02331543 C42.60427933 0.68672367 43.80366868 1.94689717 45.83984375 4.53125 C46.41517171 7.98321775 46.36223318 9.7195159 44.45800781 12.6784668 C40.37400933 15.56856979 36.33962022 15.15404714 31.44921875 15.17578125 C30.43063782 15.19468918 29.41205688 15.21359711 28.36260986 15.233078 C26.20753265 15.26957172 24.05227963 15.29670781 21.89697266 15.31518555 C18.61561506 15.34352741 15.33559643 15.39859199 12.0546875 15.45898438 C9.95705476 15.49115438 7.85939801 15.52180236 5.76171875 15.55078125 C4.78748962 15.5652681 3.8132605 15.57975494 2.80950928 15.59468079 C-11.85235199 15.70827383 -11.85235199 15.70827383 -15.66015625 12.28125 C-17.3135999 9.24993664 -17.93778134 7.90095872 -17.16015625 4.53125 C-12.5714181 -0.94670999 -6.57534987 -0.04658622 0 0 Z " fill="#DB814D" transform="translate(185.16015625,328.46875)"/>
<path d="M0 0 C0.78503906 0.00773437 1.57007813 0.01546875 2.37890625 0.0234375 C3.55646484 0.01183594 3.55646484 0.01183594 4.7578125 0 C10.62559838 0.02012963 10.62559838 0.02012963 12.87890625 2.2734375 C13.12890625 5.2734375 13.12890625 5.2734375 12.87890625 8.2734375 C10.25931001 10.89303374 8.33036832 10.56199977 4.7578125 10.59570312 C3.97277344 10.59248047 3.18773437 10.58925781 2.37890625 10.5859375 C1.59386719 10.60205078 0.80882812 10.61816406 0 10.63476562 C-2.27734375 10.63671875 -2.27734375 10.63671875 -6.12109375 10.2734375 C-8.2702516 7.04970073 -8.50396178 6.00640076 -8.12109375 2.2734375 C-5.49385551 -0.35380074 -3.57897702 0.01227779 0 0 Z " fill="#D97C49" transform="translate(56.12109375,297.7265625)"/>
<path d="M0 0 C0.33 0 0.66 0 1 0 C1.05783842 4.29161047 1.0935412 8.58312145 1.125 12.875 C1.14175781 14.09832031 1.15851563 15.32164062 1.17578125 16.58203125 C1.18222656 17.74863281 1.18867188 18.91523438 1.1953125 20.1171875 C1.20578613 21.19597168 1.21625977 22.27475586 1.22705078 23.38623047 C1 26 1 26 -1 28 C-1.71396616 22.00778403 -2.09251226 16.16469615 -1.9375 10.12890625 C-1.9032147 7.80993536 -1.9032147 7.80993536 -3 5 C-2.19851251 3.05353038 -1.4949015 1.4949015 0 0 Z " fill="#DB8657" transform="translate(416,182)"/>
<path d="M0 0 C-2 2 -2 2 -5 3 C-5.33 3.66 -5.66 4.32 -6 5 C-9.63 4.67 -13.26 4.34 -17 4 C-14.23719462 2.15812975 -12.19292174 1.27751723 -9.0625 0.3125 C-7.78052734 -0.09548828 -7.78052734 -0.09548828 -6.47265625 -0.51171875 C-3.89489426 -1.02075548 -2.45550663 -0.84888744 0 0 Z " fill="#E08D5F" transform="translate(310,294)"/>
<path d="M0 0 C0.66 0.33 1.32 0.66 2 1 C1.66226563 1.47050781 1.32453125 1.94101563 0.9765625 2.42578125 C0.30753906 3.35970703 0.30753906 3.35970703 -0.375 4.3125 C-0.81585938 4.92738281 -1.25671875 5.54226562 -1.7109375 6.17578125 C-2.83410907 7.7652392 -3.92041447 9.38062171 -5 11 C-5.3125 7.75 -5.3125 7.75 -5 4 C-2.5 1.5625 -2.5 1.5625 0 0 Z " fill="#E19063" transform="translate(159,114)"/>
<path d="M0 0 C2.97 0 5.94 0 9 0 C9 0.66 9 1.32 9 2 C4.545 2.495 4.545 2.495 0 3 C0 2.01 0 1.02 0 0 Z " fill="#DA703A" transform="translate(292,298)"/>
<path d="M0 0 C5.75 3.625 5.75 3.625 8 7 C5.25851328 6.62952882 3.41406801 6.31412056 1.1875 4.625 C0 3 0 3 0 0 Z " fill="#DF804E" transform="translate(447,365)"/>
</svg>
